<svg width="32" height="32" viewBox="0 0 32 32" aria-hidden="true" focusable="false" style="fill: var(--core-ui-theme-icon-primary,rgba(12,11,49,1));"><path fill-rule="evenodd" d="M7.28 7.844C9.552 5.468 12.864 4 16.156 4 22.686 4 28 9.314 28 15.845c0 6.53-5.314 11.843-11.845 11.843-6.007 0-11.305-4.553-12.062-10.366l-.012-.136-.078-1.527h7.888a4.3 4.3 0 0 1 8.127 0h4.727c-.19-4.571-3.97-8.412-8.59-8.412-2.433 0-4.964 1.15-6.626 2.944h1.78v3.156H4V6.003h3.28v1.84zm4.693 10.844H7.77c.795 2.91 3.743 5.131 6.979 5.643v-3.138a4.31 4.31 0 0 1-2.777-2.505zm7.963 0a4.31 4.31 0 0 1-2.686 2.477v3.208c3.294-.418 6.184-2.685 7.008-5.685h-4.322z"></path></svg>