<svg width="32" height="32" viewBox="0 0 32 32" aria-hidden="true" focusable="false" style="fill: var(--core-ui-theme-icon-primary,rgba(12,11,49,1));"><path fill-rule="evenodd" clip-rule="evenodd" d="m28.424 13.678-.936-.65.432-.361c.432-.361.648-.94.432-1.445-.144-.505-.648-.866-1.225-.866h-1.8l-1.513-4.19A3.44 3.44 0 0 0 20.645 4h-9.362c-1.44 0-2.737.867-3.241 2.239l-1.44 4.189H4.728c-.505 0-1.009.36-1.225.866-.216.506 0 1.084.432 1.445l.504.289-.936.65c-.288.289-.504.65-.504 1.01.072 5.706.864 8.74.864 8.74v2.816c0 .434.36.867.865.867H7.32c.504 0 .865-.361.865-.867v-1.95h15.628v1.95c0 .434.36.867.865.867h2.593c.504 0 .864-.361.864-.867v-2.816s.792-3.034.864-8.74c-.072-.36-.288-.721-.576-1.01zM10.13 6.96c.216-.505.648-.794 1.152-.794h9.291c.505 0 1.009.36 1.153.794l1.872 5.2H8.258l1.872-5.2zM8.69 18.372H6.457A1.37 1.37 0 0 1 5.09 17c0-.722.648-1.372 1.368-1.372h2.305c.72 0 1.368.578 1.368 1.372-.072.794-.648 1.372-1.44 1.372zm16.853 0H23.31c-.792 0-1.368-.578-1.368-1.372a1.37 1.37 0 0 1 1.368-1.372h2.233c.792 0 1.368.578 1.368 1.372 0 .794-.576 1.372-1.368 1.372z"></path></svg>